<?xml version="1.0" encoding="utf-8"?>
<!-- Generator: Adobe Illustrator 27.2.0, SVG Export Plug-In . SVG Version: 6.00 Build 0)  -->
<svg version="1.1" id="Layer_1" xmlns="http://www.w3.org/2000/svg" xmlns:xlink="http://www.w3.org/1999/xlink" x="0px" y="0px"
	 viewBox="0 0 32 32" style="enable-background:new 0 0 32 32;" xml:space="preserve">
<style type="text/css">
	.st0{fill:#D1D3D4;}
	.st1{fill:#A7A9AC;}
	.st2{fill:#FFFFFF;}
	.st3{fill:#E6E7E8;}
	.st4{fill:#6D6E71;}
	.st5{fill:#58595B;}
	.st6{fill:#808285;}
	.st7{fill:#F1F2F2;}
	.st8{fill:#BCBEC0;}
	.st9{fill:#939598;}
</style>
<g>
	<g id="XMLID_00000049186650356755967910000012130717446999091129_">
		<g>
			<rect x="26.7" y="23.1" class="st0" width="1.8" height="1.8"/>
			<rect x="26.7" y="26.6" class="st0" width="1.8" height="1.8"/>
			<rect x="23.1" y="26.6" class="st0" width="1.8" height="1.8"/>
			<rect x="3.6" y="7.1" class="st0" width="1.8" height="1.8"/>
			<rect x="3.6" y="3.5" class="st0" width="1.8" height="1.8"/>
			<rect x="7.2" y="3.5" class="st0" width="1.8" height="1.8"/>
			<rect x="3.6" y="5.3" class="st1" width="1.8" height="1.8"/>
			<rect x="7.2" y="5.3" class="st1" width="1.8" height="1.8"/>
			<rect x="5.4" y="7.1" class="st1" width="1.8" height="1.8"/>
			<rect x="5.4" y="3.5" class="st1" width="1.8" height="1.8"/>
			<rect x="26.7" y="24.9" class="st1" width="1.8" height="1.8"/>
			<rect x="23.1" y="24.9" class="st1" width="1.8" height="1.8"/>
			<rect x="24.9" y="26.6" class="st1" width="1.8" height="1.8"/>
			<rect x="24.9" y="23.1" class="st1" width="1.8" height="1.8"/>
			<rect x="30.3" y="16" class="st2" width="1.8" height="1.8"/>
			<rect x="30.3" y="14.2" class="st2" width="1.8" height="1.8"/>
			<rect x="28.5" y="17.8" class="st3" width="1.8" height="1.8"/>
			<rect x="28.5" y="16" class="st3" width="1.8" height="1.8"/>
			<rect x="28.5" y="14.2" class="st3" width="1.8" height="1.8"/>
			<rect x="28.5" y="12.4" class="st3" width="1.8" height="1.8"/>
			<rect x="28.5" y="10.6" class="st3" width="1.8" height="1.8"/>
			<rect x="26.7" y="19.5" class="st0" width="1.8" height="1.8"/>
			<rect x="26.7" y="17.8" class="st1" width="1.8" height="1.8"/>
			<rect x="26.7" y="16" width="1.8" height="1.8"/>
			<rect x="26.7" y="14.2" width="1.8" height="1.8"/>
			<rect x="26.7" y="12.4" class="st1" width="1.8" height="1.8"/>
			<rect x="26.7" y="10.6" class="st3" width="1.8" height="1.8"/>
			<rect x="26.7" y="7.1" class="st0" width="1.8" height="1.8"/>
			<rect x="26.7" y="5.3" class="st1" width="1.8" height="1.8"/>
			<rect x="26.7" y="3.5" class="st0" width="1.8" height="1.8"/>
			<rect x="24.9" y="24.9" width="1.8" height="1.8"/>
			<rect x="24.9" y="21.3" class="st0" width="1.8" height="1.8"/>
			<rect x="24.9" y="19.5" width="1.8" height="1.8"/>
			<rect x="24.9" y="17.8" width="1.8" height="1.8"/>
			<rect x="24.9" y="16" width="1.8" height="1.8"/>
			<rect x="24.9" y="14.2" width="1.8" height="1.8"/>
			<rect x="24.9" y="12.4" width="1.8" height="1.8"/>
			<rect x="24.9" y="10.6" width="1.8" height="1.8"/>
			<rect x="24.9" y="8.9" class="st4" width="1.8" height="1.8"/>
			<rect x="24.9" y="7.1" class="st1" width="1.8" height="1.8"/>
			<rect x="24.9" y="5.3" width="1.8" height="1.8"/>
			<rect x="24.9" y="3.5" class="st1" width="1.8" height="1.8"/>
			<rect x="23.1" y="23.1" class="st0" width="1.8" height="1.8"/>
			<rect x="23.1" y="21.3" width="1.8" height="1.8"/>
			<rect x="23.1" y="19.5" width="1.8" height="1.8"/>
			<rect x="23.1" y="17.8" width="1.8" height="1.8"/>
			<rect x="23.1" y="16" width="1.8" height="1.8"/>
			<rect x="23.1" y="14.2" width="1.8" height="1.8"/>
			<rect x="23.1" y="12.4" width="1.8" height="1.8"/>
			<rect x="23.1" y="10.6" width="1.8" height="1.8"/>
			<rect x="23.1" y="8.9" width="1.8" height="1.8"/>
			<rect x="23.1" y="7.1" class="st4" width="1.8" height="1.8"/>
			<rect x="23.1" y="5.3" class="st1" width="1.8" height="1.8"/>
			<rect x="23.1" y="3.5" class="st0" width="1.8" height="1.8"/>
			<rect x="21.4" y="24.9" class="st0" width="1.8" height="1.8"/>
			<rect x="21.4" y="23.1" width="1.8" height="1.8"/>
			<rect x="21.4" y="21.3" width="1.8" height="1.8"/>
			<rect x="21.4" y="19.5" width="1.8" height="1.8"/>
			<rect x="21.4" y="17.8" width="1.8" height="1.8"/>
			<rect x="21.4" y="16" width="1.8" height="1.8"/>
			<rect x="21.4" y="14.2" width="1.8" height="1.8"/>
			<rect x="21.4" y="12.4" width="1.8" height="1.8"/>
			<rect x="21.4" y="10.6" width="1.8" height="1.8"/>
			<rect x="21.4" y="8.9" width="1.8" height="1.8"/>
			<rect x="21.4" y="7.1" width="1.8" height="1.8"/>
			<rect x="21.4" y="5.3" class="st0" width="1.8" height="1.8"/>
			<rect x="19.6" y="26.6" class="st0" width="1.8" height="1.8"/>
			<rect x="19.6" y="24.9" width="1.8" height="1.8"/>
			<rect x="19.6" y="23.1" width="1.8" height="1.8"/>
			<rect x="19.6" y="21.3" width="1.8" height="1.8"/>
			<rect x="19.6" y="19.5" width="1.8" height="1.8"/>
			<rect x="19.6" y="17.8" width="1.8" height="1.8"/>
			<rect x="19.6" y="16" width="1.8" height="1.8"/>
			<rect x="19.6" y="14.2" width="1.8" height="1.8"/>
			<rect x="19.6" y="12.4" width="1.8" height="1.8"/>
			<rect x="19.6" y="10.6" width="1.8" height="1.8"/>
			<rect x="19.6" y="8.9" width="1.8" height="1.8"/>
			<rect x="19.6" y="7.1" width="1.8" height="1.8"/>
			<rect x="19.6" y="5.3" width="1.8" height="1.8"/>
			<rect x="19.6" y="3.5" class="st0" width="1.8" height="1.8"/>
			<rect x="17.8" y="28.4" class="st0" width="1.8" height="1.8"/>
			<rect x="17.8" y="26.6" class="st1" width="1.8" height="1.8"/>
			<rect x="17.8" y="24.9" width="1.8" height="1.8"/>
			<rect x="17.8" y="23.1" width="1.8" height="1.8"/>
			<rect x="17.8" y="21.3" width="1.8" height="1.8"/>
			<rect x="17.8" y="19.5" width="1.8" height="1.8"/>
			<rect x="17.8" y="17.8" width="1.8" height="1.8"/>
			<rect x="17.8" y="16" width="1.8" height="1.8"/>
			<rect x="17.8" y="14.2" width="1.8" height="1.8"/>
			<rect x="17.8" y="12.4" width="1.8" height="1.8"/>
			<rect x="17.8" y="10.6" width="1.8" height="1.8"/>
			<rect x="17.8" y="8.9" width="1.8" height="1.8"/>
			<rect x="17.8" y="7.1" width="1.8" height="1.8"/>
			<rect x="17.8" y="5.3" width="1.8" height="1.8"/>
			<rect x="17.8" y="3.5" class="st1" width="1.8" height="1.8"/>
			<rect x="17.8" y="1.8" class="st0" width="1.8" height="1.8"/>
			<rect x="16" y="28.4" class="st0" width="1.8" height="1.8"/>
			<rect x="16" y="26.6" width="1.8" height="1.8"/>
			<rect x="16" y="24.9" width="1.8" height="1.8"/>
			<rect x="16" y="23.1" width="1.8" height="1.8"/>
			<rect x="16" y="21.3" width="1.8" height="1.8"/>
			<rect x="16" y="19.5" width="1.8" height="1.8"/>
			<rect x="16" y="17.8" width="1.8" height="1.8"/>
			<rect x="16" y="16" width="1.8" height="1.8"/>
			<rect x="16" y="14.2" width="1.8" height="1.8"/>
			<rect x="16" y="12.4" width="1.8" height="1.8"/>
			<rect x="16" y="10.6" width="1.8" height="1.8"/>
			<rect x="16" y="8.9" width="1.8" height="1.8"/>
			<rect x="16" y="7.1" width="1.8" height="1.8"/>
			<rect x="16" y="5.3" width="1.8" height="1.8"/>
			<rect x="16" y="3.5" width="1.8" height="1.8"/>
			<rect x="16" y="1.8" class="st0" width="1.8" height="1.8"/>
			<rect x="14.3" y="28.4" class="st0" width="1.8" height="1.8"/>
			<rect x="14.3" y="26.6" width="1.8" height="1.8"/>
			<rect x="14.3" y="24.9" width="1.8" height="1.8"/>
			<rect x="14.3" y="23.1" width="1.8" height="1.8"/>
			<rect x="14.3" y="21.3" width="1.8" height="1.8"/>
			<rect x="14.3" y="19.5" width="1.8" height="1.8"/>
			<rect x="14.3" y="17.8" width="1.8" height="1.8"/>
			<rect x="14.3" y="16" class="st5" width="1.8" height="1.8"/>
			<rect x="14.3" y="14.2" class="st6" width="1.8" height="1.8"/>
			<rect x="14.3" y="12.4" class="st6" width="1.8" height="1.8"/>
			<rect x="14.3" y="10.6" class="st5" width="1.8" height="1.8"/>
			<rect x="14.3" y="8.9" width="1.8" height="1.8"/>
			<rect x="14.3" y="7.1" width="1.8" height="1.8"/>
			<rect x="14.3" y="5.3" width="1.8" height="1.8"/>
			<rect x="14.3" y="3.5" width="1.8" height="1.8"/>
			<rect x="14.3" y="1.8" class="st0" width="1.8" height="1.8"/>
			<rect x="12.5" y="28.4" class="st0" width="1.8" height="1.8"/>
			<rect x="12.5" y="26.6" class="st1" width="1.8" height="1.8"/>
			<rect x="12.5" y="24.9" width="1.8" height="1.8"/>
			<rect x="12.5" y="23.1" width="1.8" height="1.8"/>
			<rect x="12.5" y="21.3" width="1.8" height="1.8"/>
			<rect x="12.5" y="19.5" width="1.8" height="1.8"/>
			<rect x="12.5" y="17.8" width="1.8" height="1.8"/>
			<rect x="12.5" y="16" class="st6" width="1.8" height="1.8"/>
			<rect x="12.5" y="14.2" class="st7" width="1.8" height="1.8"/>
			<rect x="12.5" y="12.4" class="st7" width="1.8" height="1.8"/>
			<rect x="12.5" y="10.6" class="st6" width="1.8" height="1.8"/>
			<rect x="12.5" y="8.9" width="1.8" height="1.8"/>
			<rect x="12.5" y="7.1" width="1.8" height="1.8"/>
			<rect x="12.5" y="5.3" width="1.8" height="1.8"/>
			<rect x="12.5" y="3.5" class="st1" width="1.8" height="1.8"/>
			<rect x="12.5" y="1.8" class="st0" width="1.8" height="1.8"/>
			<rect x="10.7" y="26.6" class="st0" width="1.8" height="1.8"/>
			<rect x="10.7" y="24.9" width="1.8" height="1.8"/>
			<rect x="10.7" y="23.1" width="1.8" height="1.8"/>
			<rect x="10.7" y="21.3" width="1.8" height="1.8"/>
			<rect x="10.7" y="19.5" width="1.8" height="1.8"/>
			<rect x="10.7" y="17.8" width="1.8" height="1.8"/>
			<rect x="10.7" y="16" class="st6" width="1.8" height="1.8"/>
			<rect x="10.7" y="14.2" class="st7" width="1.8" height="1.8"/>
			<rect x="10.7" y="12.4" class="st7" width="1.8" height="1.8"/>
			<rect x="10.7" y="10.6" class="st6" width="1.8" height="1.8"/>
			<rect x="10.7" y="8.9" width="1.8" height="1.8"/>
			<rect x="10.7" y="7.1" width="1.8" height="1.8"/>
			<rect x="10.7" y="5.3" width="1.8" height="1.8"/>
			<rect x="10.7" y="3.5" class="st0" width="1.8" height="1.8"/>
			<rect x="8.9" y="24.9" class="st0" width="1.8" height="1.8"/>
			<rect x="8.9" y="23.1" width="1.8" height="1.8"/>
			<rect x="8.9" y="21.3" width="1.8" height="1.8"/>
			<rect x="8.9" y="19.5" width="1.8" height="1.8"/>
			<rect x="8.9" y="17.8" width="1.8" height="1.8"/>
			<rect x="8.9" y="16" class="st5" width="1.8" height="1.8"/>
			<rect x="8.9" y="14.2" class="st6" width="1.8" height="1.8"/>
			<rect x="8.9" y="12.4" class="st6" width="1.8" height="1.8"/>
			<rect x="8.9" y="10.6" class="st5" width="1.8" height="1.8"/>
			<rect x="8.9" y="8.9" width="1.8" height="1.8"/>
			<rect x="8.9" y="7.1" width="1.8" height="1.8"/>
			<rect x="8.9" y="5.3" class="st0" width="1.8" height="1.8"/>
			<rect x="7.2" y="26.6" class="st8" width="1.8" height="1.8"/>
			<rect x="7.2" y="24.9" class="st9" width="1.8" height="1.8"/>
			<rect x="7.2" y="23.1" class="st4" width="1.8" height="1.8"/>
			<rect x="7.2" y="21.3" width="1.8" height="1.8"/>
			<rect x="7.2" y="19.5" width="1.8" height="1.8"/>
			<rect x="7.2" y="17.8" width="1.8" height="1.8"/>
			<rect x="7.2" y="16" width="1.8" height="1.8"/>
			<rect x="7.2" y="14.2" width="1.8" height="1.8"/>
			<rect x="7.2" y="12.4" width="1.8" height="1.8"/>
			<rect x="7.2" y="10.6" width="1.8" height="1.8"/>
			<rect x="7.2" y="8.9" width="1.8" height="1.8"/>
			<rect x="7.2" y="7.1" class="st0" width="1.8" height="1.8"/>
			<rect x="5.4" y="28.4" class="st7" width="1.8" height="1.8"/>
			<rect x="5.4" y="26.6" class="st9" width="1.8" height="1.8"/>
			<rect x="5.4" y="24.9" width="1.8" height="1.8"/>
			<rect x="5.4" y="23.1" class="st9" width="1.8" height="1.8"/>
			<rect x="5.4" y="21.3" class="st4" width="1.8" height="1.8"/>
			<rect x="5.4" y="19.5" width="1.8" height="1.8"/>
			<rect x="5.4" y="17.8" width="1.8" height="1.8"/>
			<rect x="5.4" y="16" width="1.8" height="1.8"/>
			<rect x="5.4" y="14.2" width="1.8" height="1.8"/>
			<rect x="5.4" y="12.4" width="1.8" height="1.8"/>
			<rect x="5.4" y="10.6" width="1.8" height="1.8"/>
			<rect x="5.4" y="8.9" class="st0" width="1.8" height="1.8"/>
			<rect x="5.4" y="5.3" width="1.8" height="1.8"/>
			<rect x="3.6" y="26.6" class="st8" width="1.8" height="1.8"/>
			<rect x="3.6" y="24.9" class="st9" width="1.8" height="1.8"/>
			<rect x="3.6" y="23.1" class="st8" width="1.8" height="1.8"/>
			<rect x="3.6" y="19.5" class="st0" width="1.8" height="1.8"/>
			<rect x="3.6" y="17.8" class="st1" width="1.8" height="1.8"/>
			<rect x="3.6" y="16" width="1.8" height="1.8"/>
			<rect x="3.6" y="14.2" width="1.8" height="1.8"/>
			<rect x="3.6" y="12.4" class="st1" width="1.8" height="1.8"/>
			<rect x="3.6" y="10.6" class="st0" width="1.8" height="1.8"/>
			<rect x="1.8" y="17.8" class="st3" width="1.8" height="1.8"/>
			<rect x="1.8" y="16" class="st3" width="1.8" height="1.8"/>
			<rect x="1.8" y="14.2" class="st3" width="1.8" height="1.8"/>
			<rect x="1.8" y="12.4" class="st3" width="1.8" height="1.8"/>
		</g>
		<g>
		</g>
	</g>
</g>
<image style="overflow:visible;" width="61" height="62" xlink:href="4FC37B15.jpg"  transform="matrix(0.2609 0 0 0.2609 -19.0833 37.5446)">
</image>
<image style="overflow:visible;" width="61" height="62" xlink:href="4FC37B1A.jpg"  transform="matrix(0.2609 0 0 0.2609 33.3056 0.2113)">
</image>
</svg>
