<?xml version="1.0" encoding="utf-8"?>
<!-- Generator: Adobe Illustrator 27.2.0, SVG Export Plug-In . SVG Version: 6.00 Build 0)  -->
<svg version="1.1" id="Layer_1" xmlns="http://www.w3.org/2000/svg" xmlns:xlink="http://www.w3.org/1999/xlink" x="0px" y="0px"
	 viewBox="0 0 32 32" style="enable-background:new 0 0 32 32;" xml:space="preserve">
<style type="text/css">
	.st0{fill:#ED1C24;}
</style>
<image style="overflow:visible;" width="59" height="56" xlink:href="4FC37B16.jpg"  transform="matrix(0.1342 0 0 0.1342 34.2538 11.7501)">
</image>
<g>
	<g id="XMLID_00000080913827890521540700000013294349589921930166_">
		<g>
			<rect x="24.9" y="28.5" width="1.8" height="1.8"/>
			<rect x="24.9" y="26.7" width="1.8" height="1.8"/>
			<rect x="23.1" y="28.5" width="1.8" height="1.8"/>
			<rect x="23.1" y="26.7" width="1.8" height="1.8"/>
			<rect x="21.3" y="28.5" width="1.8" height="1.8"/>
			<rect x="21.3" y="26.7" width="1.8" height="1.8"/>
			<rect x="21.3" y="24.9" width="1.8" height="1.8"/>
			<rect x="19.5" y="28.5" width="1.8" height="1.8"/>
			<rect x="19.5" y="26.7" width="1.8" height="1.8"/>
			<rect x="19.5" y="24.9" width="1.8" height="1.8"/>
			<rect x="19.5" y="23.1" width="1.8" height="1.8"/>
			<rect x="19.5" y="1.8" width="1.8" height="1.8"/>
			<rect x="17.8" y="28.5" width="1.8" height="1.8"/>
			<rect x="17.8" y="26.7" width="1.8" height="1.8"/>
			<rect x="17.8" y="24.9" width="1.8" height="1.8"/>
			<rect x="17.8" y="23.1" width="1.8" height="1.8"/>
			<rect x="17.8" y="21.4" width="1.8" height="1.8"/>
			<rect x="17.8" y="19.6" width="1.8" height="1.8"/>
			<rect x="17.8" y="17.8" width="1.8" height="1.8"/>
			<rect x="17.8" y="16" width="1.8" height="1.8"/>
			<rect x="17.8" y="14.2" width="1.8" height="1.8"/>
			<rect x="17.8" y="12.5" width="1.8" height="1.8"/>
			<rect x="17.8" y="10.7" width="1.8" height="1.8"/>
			<rect x="17.8" y="8.9" width="1.8" height="1.8"/>
			<rect x="17.8" y="7.1" width="1.8" height="1.8"/>
			<rect x="17.8" y="5.3" width="1.8" height="1.8"/>
			<rect x="17.8" y="3.6" width="1.8" height="1.8"/>
			<rect x="17.8" y="1.8" width="1.8" height="1.8"/>
			<rect x="16" y="28.5" width="1.8" height="1.8"/>
			<rect x="16" y="26.7" width="1.8" height="1.8"/>
			<rect x="16" y="24.9" width="1.8" height="1.8"/>
			<rect x="16" y="23.1" width="1.8" height="1.8"/>
			<rect x="16" y="8.9" class="st0" width="1.8" height="1.8"/>
			<rect x="16" y="7.1" class="st0" width="1.8" height="1.8"/>
			<rect x="16" y="5.3" class="st0" width="1.8" height="1.8"/>
			<rect x="16" y="3.6" class="st0" width="1.8" height="1.8"/>
			<rect x="14.2" y="28.5" width="1.8" height="1.8"/>
			<rect x="14.2" y="26.7" width="1.8" height="1.8"/>
			<rect x="14.2" y="24.9" width="1.8" height="1.8"/>
			<rect x="14.2" y="8.9" class="st0" width="1.8" height="1.8"/>
			<rect x="14.2" y="7.1" class="st0" width="1.8" height="1.8"/>
			<rect x="14.2" y="5.3" class="st0" width="1.8" height="1.8"/>
			<rect x="14.2" y="3.6" class="st0" width="1.8" height="1.8"/>
			<rect x="12.4" y="28.5" width="1.8" height="1.8"/>
			<rect x="12.4" y="26.7" width="1.8" height="1.8"/>
			<rect x="12.4" y="24.9" width="1.8" height="1.8"/>
			<rect x="12.4" y="10.7" class="st0" width="1.8" height="1.8"/>
			<rect x="12.4" y="8.9" class="st0" width="1.8" height="1.8"/>
			<rect x="12.4" y="7.1" class="st0" width="1.8" height="1.8"/>
			<rect x="12.4" y="5.3" class="st0" width="1.8" height="1.8"/>
			<rect x="10.7" y="28.5" width="1.8" height="1.8"/>
			<rect x="10.7" y="26.7" width="1.8" height="1.8"/>
			<rect x="10.7" y="24.9" width="1.8" height="1.8"/>
			<rect x="10.7" y="10.7" class="st0" width="1.8" height="1.8"/>
			<rect x="10.7" y="8.9" class="st0" width="1.8" height="1.8"/>
			<rect x="10.7" y="7.1" class="st0" width="1.8" height="1.8"/>
			<rect x="10.7" y="5.3" class="st0" width="1.8" height="1.8"/>
			<rect x="8.9" y="28.5" width="1.8" height="1.8"/>
			<rect x="8.9" y="26.7" width="1.8" height="1.8"/>
			<rect x="8.9" y="10.7" class="st0" width="1.8" height="1.8"/>
			<rect x="8.9" y="8.9" class="st0" width="1.8" height="1.8"/>
			<rect x="8.9" y="7.1" class="st0" width="1.8" height="1.8"/>
			<rect x="8.9" y="5.3" class="st0" width="1.8" height="1.8"/>
			<rect x="7.1" y="28.5" width="1.8" height="1.8"/>
			<rect x="7.1" y="26.7" width="1.8" height="1.8"/>
			<rect x="7.1" y="8.9" class="st0" width="1.8" height="1.8"/>
			<rect x="7.1" y="7.1" class="st0" width="1.8" height="1.8"/>
			<rect x="7.1" y="5.3" class="st0" width="1.8" height="1.8"/>
			<rect x="7.1" y="3.6" class="st0" width="1.8" height="1.8"/>
			<rect x="5.3" y="10.7" class="st0" width="1.8" height="1.8"/>
			<rect x="5.3" y="8.9" class="st0" width="1.8" height="1.8"/>
			<rect x="5.3" y="7.1" class="st0" width="1.8" height="1.8"/>
			<rect x="5.3" y="5.3" class="st0" width="1.8" height="1.8"/>
			<rect x="3.5" y="10.7" class="st0" width="1.8" height="1.8"/>
			<rect x="3.5" y="8.9" class="st0" width="1.8" height="1.8"/>
			<rect x="3.5" y="7.1" class="st0" width="1.8" height="1.8"/>
			<rect x="3.5" y="5.3" class="st0" width="1.8" height="1.8"/>
		</g>
		<g>
		</g>
	</g>
</g>
</svg>
